<?xml version="1.0" encoding="utf-8"?>
<!-- Generator: Adobe Illustrator 25.3.1, SVG Export Plug-In . SVG Version: 6.00 Build 0)  -->
<svg version="1.1" id="Layer_1" xmlns="http://www.w3.org/2000/svg" xmlns:xlink="http://www.w3.org/1999/xlink" x="0px" y="0px"
	 viewBox="0 0 480 360" style="enable-background:new 0 0 480 360;" xml:space="preserve">
<style type="text/css">
	.st0{fill-rule:evenodd;clip-rule:evenodd;fill:#363795;}
</style>
<g id="Group_1" transform="translate(-58.637 -8128.11)">
	<path id="Path_1" class="st0" d="M502.9,8152.5c-0.4,0-0.8,0-1.2,0.1l-408.4,99.1c-2.6,0.6-4.2,3.3-3.6,5.9
		c0.3,1.4,1.2,2.5,2.4,3.1l116.1,61.4l0.1,136.6c0,2.7,2.2,4.9,4.9,4.9c1.4,0,2.8-0.6,3.7-1.7l79.6-93l33.4,17.7
		c2.1,1.1,4.7,0.5,6.1-1.4l170.7-225c1.6-2.1,1.2-5.2-0.9-6.8C505,8152.9,504,8152.5,502.9,8152.5L502.9,8152.5z M469.5,8170.5
		l-256.3,143.4L108,8258.2L469.5,8170.5L469.5,8170.5z M484.9,8173l-154.1,203.1l-103.8-55h0l-3.5-1.9L484.9,8173L484.9,8173z
		 M217.9,8327.4l4.5,2.4l0,0l65.3,34.5l-69.7,81.4L217.9,8327.4L217.9,8327.4z"/>
</g>
</svg>
